#N canvas 197 239 519 300 10;
#X obj -114 170 osc~ 440;
#X obj -36 86 t b b;
#X obj -34 106 del 10;
#X msg -34 140 0 500;
#X obj -34 168 line~;
#X obj -109 214 *~;
#X obj -5 259 dac~;
#X msg 7 140 0.5 10;
#X msg 40 39 bang;
#X obj -118 38 r \$0-freq;
#X obj -36 38 r \$0-note;
#X obj 100 103 adc~;
#X obj 139 41 r \$0-volume;
#X obj 139 102 * 0.1;
#X obj 123 171 *~ 0.2;
#X connect 0 0 5 0;
#X connect 1 0 2 0;
#X connect 1 1 7 0;
#X connect 2 0 3 0;
#X connect 3 0 4 0;
#X connect 4 0 5 1;
#X connect 5 0 6 0;
#X connect 5 0 6 1;
#X connect 7 0 4 0;
#X connect 8 0 1 0;
#X connect 9 0 0 0;
#X connect 10 0 1 0;
#X connect 11 0 14 0;
#X connect 12 0 13 0;
#X connect 13 0 14 1;
#X connect 14 0 6 0;
#X connect 14 0 6 1;
